<svg width="24" height="24" viewBox="0 0 24 24" fill="none" xmlns="http://www.w3.org/2000/svg">
<path fill-rule="evenodd" clip-rule="evenodd" d="M5.30839 5.50642C5.93044 6.01181 6.1638 5.97325 7.33194 5.89531L18.3443 5.23407C18.5779 5.23407 18.3837 5.00106 18.3058 4.96234L16.4769 3.64017C16.1264 3.3681 15.6595 3.05652 14.7647 3.13446L4.10138 3.91221C3.71248 3.95077 3.63482 4.14521 3.78968 4.30106L5.30839 5.50642ZM5.96955 8.07286V19.6598C5.96955 20.2825 6.28074 20.5155 6.98113 20.477L19.0838 19.7767C19.7845 19.7382 19.8626 19.3098 19.8626 18.804V7.29476C19.8626 6.78972 19.6683 6.51736 19.2393 6.55624L6.59196 7.29476C6.12521 7.33398 5.96951 7.56746 5.96951 8.07286H5.96955ZM17.9172 8.6944C17.9948 9.0447 17.9172 9.39468 17.5663 9.43406L16.9832 9.55025V18.1045C16.4769 18.3766 16.01 18.5322 15.6209 18.5322C14.9981 18.5322 14.8421 18.3376 14.3755 17.7547L10.5612 11.7667V17.5602L11.7682 17.8326C11.7682 17.8326 11.7682 18.5322 10.7944 18.5322L8.10981 18.6879C8.03182 18.5322 8.1098 18.1437 8.38212 18.0658L9.08267 17.8717V10.2115L8.11 10.1335C8.03198 9.78321 8.22627 9.27813 8.77148 9.23895L11.6514 9.04481L15.6209 15.1108V9.74466L14.6089 9.62851C14.5312 9.20027 14.8421 8.88932 15.2313 8.85076L17.9172 8.6944ZM3.20607 2.86242L14.2976 2.04561C15.6597 1.92879 16.0102 2.00705 16.8662 2.62891L20.4068 5.11741C20.991 5.54533 21.1857 5.66183 21.1857 6.12831V19.7767C21.1857 20.632 20.8741 21.1379 19.7847 21.2153L6.90405 21.9931C6.08625 22.0321 5.69705 21.9156 5.26877 21.3709L2.66144 17.988C2.19429 17.3653 2 16.8994 2 16.3544V4.22284C2 3.52335 2.3117 2.93986 3.20607 2.86242V2.86242Z" fill="white"/>
</svg>
